HIERARCHY
ROOT HipCenter
{
    OFFSET 0.0 0.0 -0.0
    CHANNELS 6 Xposition Yposition Zposition Zrotation Xrotation Yrotation
    JOINT Spine
    {
        OFFSET 0.0 28.488142013549805 0.0
        CHANNELS 3 Zrotation Xrotation Yrotation
        JOINT ShoulderCenter
        {
            OFFSET 0.0 21.235279083251953 0.0
            CHANNELS 3 Zrotation Xrotation Yrotation
            JOINT LeftShoulder
            {
                OFFSET 16.294086456298828 0.0 0.0
                CHANNELS 3 Zrotation Xrotation Yrotation
                JOINT LeftElbow
                {
                    OFFSET 24.36598014831543 0.0 0.0
                    CHANNELS 3 Zrotation Xrotation Yrotation
                    JOINT LeftWrist
                    {
                        OFFSET 20.987735748291016 0.0 0.0
                        CHANNELS 3 Zrotation Xrotation Yrotation
                        JOINT LeftHand
                        {
                            OFFSET 6.786062717437744 0.0 0.0
                            CHANNELS 3 Zrotation Xrotation Yrotation
                            End Site
                            {
                                OFFSET 2.7144250869750977 0.0 0.0
                            }
                        }
                    }
                }
            }
            JOINT RightShoulder
            {
                OFFSET -16.294086456298828 0.0 0.0
                CHANNELS 3 Zrotation Xrotation Yrotation
                JOINT RightElbow
                {
                    OFFSET -24.36598014831543 0.0 0.0
                    CHANNELS 3 Zrotation Xrotation Yrotation
                    JOINT RightWrist
                    {
                        OFFSET -20.987735748291016 0.0 0.0
                        CHANNELS 3 Zrotation Xrotation Yrotation
                        JOINT RightHand
                        {
                            OFFSET -6.786062717437744 0.0 0.0
                            CHANNELS 3 Zrotation Xrotation Yrotation
                            End Site
                            {
                                OFFSET -2.7144250869750977 0.0 0.0
                            }
                        }
                    }
                }
            }
            End Site
            {
                OFFSET 0.0 8.494112014770508 0.0
            }
        }
    }
    JOINT LeftHip
    {
        OFFSET 7.419747352600098 0.0 0.0
        CHANNELS 3 Zrotation Xrotation Yrotation
        JOINT LeftKnee
        {
            OFFSET 0.0 -28.94529914855957 0.0
            CHANNELS 3 Zrotation Xrotation Yrotation
            JOINT LeftAnkle
            {
                OFFSET 0.0 -34.36289978027344 0.0
                CHANNELS 3 Zrotation Xrotation Yrotation
                JOINT LeftFoot
                {
                    OFFSET 0.0 -11.840649604797363 0.0
                    CHANNELS 3 Zrotation Xrotation Yrotation
                    End Site
                    {
                        OFFSET 0.0 0.0 4.736259937286377
                    }
                }
            }
        }
    }
    JOINT RightHip
    {
        OFFSET -7.419747352600098 0.0 0.0
        CHANNELS 3 Zrotation Xrotation Yrotation
        JOINT RightKnee
        {
            OFFSET 0.0 -28.94529914855957 0.0
            CHANNELS 3 Zrotation Xrotation Yrotation
            JOINT RightAnkle
            {
                OFFSET 0.0 -34.36289978027344 0.0
                CHANNELS 3 Zrotation Xrotation Yrotation
                JOINT RightFoot
                {
                    OFFSET 0.0 -11.840649604797363 0.0
                    CHANNELS 3 Zrotation Xrotation Yrotation
                    End Site
                    {
                        OFFSET 0.0 0.0 4.736259937286377
                    }
                }
            }
        }
    }
}
MOTION
Frames: 6
Frame Time: 0.03333333333333333
37.44173049926758 -0.30860960483551025 -318.517578125 7.702022058759864 12.706461575756325 -160.88951247406746 -0.8452129375450791 -1.6679736460966368 -0.21638101698199558 -4.886916976282874e-07 -6.852737937555594e-07 2.543261348239859 -76.09089065529673 -28.937676316615832 -1.9705151080296304 -2.0490785710924726e-06 -1.3258902788396737e-06 17.749003082132745 179.99999822353288 -66.4454742622441 -160.90442820229867 -6.3611093629270335e-15 3.578124016646457e-15 1.9862578341225716e-31 87.66914654777871 -47.151929827930786 5.407690394441691 -3.1683255908543976e-06 1.0439191246934788e-06 -21.27062016082597 179.99999991629204 -29.1780463731632 170.63462159199597 6.3611093629270335e-15 8.827812596100317e-32 1.5902773407317584e-15 8.603549287337993 -15.20579322779531 18.556223348438266 -6.372799277517579 1.4718477856514298 0.35847760615593444 83.89439959475524 68.28883456577726 -68.82782353667326 -1.5902773407317588e-15 2.2069531490250793e-32 -1.5902773407317588e-15 11.26227124445407 -19.023183785674696 -25.67111261772191 -4.144001207934484 3.631171188298267 -0.9797878772518033 32.08120907331475 49.67585989124286 -39.42721382732292 7.951386703658792e-16 -6.3611093629270335e-15 4.4139062980501586e-32
37.45090866088867 -0.3055188059806824 -318.50299072265625 7.719756356814117 12.705472039667333 -161.03900751816994 -0.841677973525839 -1.677492262618164 -0.21311760812663405 7.341490939125019e-07 -6.276312134356572e-08 2.711525834224041 -76.19600763150908 -28.176951902247634 -1.976617227770517 1.99953539952742e-06 -3.494508703754512e-06 17.591688009454664 179.9999770169808 -71.04039702555674 -159.8586374804551 -6.3611093629270335e-15 1.987846675914698e-16 1.1034765745125397e-32 87.7418671002862 -47.56356435220926 5.416021717524235 -3.975694020561574e-06 -3.0922295800324604e-07 -21.391662627966266 -179.99999568165637 -33.21170712180717 166.74600731542176 6.3611093629270335e-15 -1.1927080055488188e-15 1.5902773407317584e-15 8.614956734407155 -15.222857399508465 18.65019032870053 -6.283676845768028 1.5075759473210748 0.36338134783548476 83.77906420307134 68.34419000958621 -68.85732483896375 -1.5902773407317584e-15 0.0 0.0 11.336443453079815 -19.047770686203283 -25.618005144328173 -4.18520456222391 3.6892214696300236 -1.0124970115104628 31.557035692182694 50.16508019950698 -39.35504599194007 -1.5902773407317584e-15 -6.3611093629270335e-15 7.951386703658791e-16
37.48255920410156 -0.2870066165924072 -318.5030822753906 7.765772682188379 12.698409553758752 -161.18143657465188 -0.8146015148285441 -1.6815553701750774 -0.2074834226213357 -4.686816462342207e-07 -1.874728470947536e-07 2.8181230651196167 -76.25182983412718 -27.740378915038416 -2.0334356387932875 -2.118549699284092e-06 7.592612567133724e-07 17.647534659685903 -179.9999964521942 -69.07283419951364 -161.81019478736863 0.0 0.0 3.1805546814635168e-15 87.60004323663017 -45.784681530789236 5.301429313788774 -4.043900337330846e-06 -9.346780234077666e-07 -21.402156106405766 -179.99999902894092 -32.919978804911615 171.27975555739434 6.3611093629270335e-15 8.827812596100317e-32 1.5902773407317584e-15 8.659786586043857 -15.332953456640112 18.729374669280737 -6.123025492894092 1.664287692695943 0.3933549779414023 83.51785315020649 68.34998031011729 -68.85139865531036 -1.5902773407317584e-15 -6.3611093629270335e-15 1.1927080055488188e-15 11.477860132998561 -19.044040467065965 -25.514703916933197 -4.226987004438875 3.6557341819990596 -1.02306422205094 31.158399215786343 50.125780523706005 -39.22990642183278 2.3854160110976376e-15 -6.620859447075238e-32 -3.1805546814635168e-15
37.48740768432617 -0.28275540471076965 -318.4871826171875 7.7372748915484655 12.666101449604682 -161.3703310760995 -0.7454977716728831 -1.675648100771112 -0.20040004049880752 -1.1005491897182966e-06 3.6521672360108445e-07 3.01881707118981 -76.41128519384486 -27.562690268906948 -2.0829507686005027 -6.227039842769941e-06 -3.10072106054885e-06 17.57886667375473 179.99999706486452 -68.12282806609133 -160.64437134238457 0.0 1.987846675914698e-16 0.0 87.61319349243406 -46.38807659020159 5.45824811334598 -3.409151176561813e-06 4.135349775556103e-06 -22.2345107941137 -179.99999841361966 -31.501863201968447 164.35740209870667 -6.3611093629270335e-15 -1.5902773407317584e-15 1.5902773407317584e-15 8.655346770291693 -15.334412713144953 18.849839508213453 -6.104374443182865 1.6911767746245825 0.3974894378647956 83.42450628605161 68.42467248845745 -68.83815454568612 -1.5902773407317584e-15 -6.3611093629270335e-15 -1.987846675914698e-15 11.509810321151294 -19.076762002591735 -25.50169525557258 -4.37117047007128 3.5840918754244933 -1.0082359741927223 31.116917805556177 49.5661458327392 -39.03467389548611 7.951386703658794e-16 0.0 0.0
37.49184799194336 -0.28407320380210876 -318.4895935058594 7.742324747834976 12.665556729589195 -161.51025911828796 -0.7391837626956255 -1.6754449610187028 -0.1996773670817184 2.51650498644063e-07 -7.512896358956381e-07 3.1049876139784707 -76.45420766549111 -26.91507566680734 -1.9349060893998624 2.0019432889727307e-06 -3.154609838588692e-06 17.246816683820505 179.99999448374516 -66.74004054705574 -158.98910918628496 6.3611093629270335e-15 -3.975693351829396e-16 2.2069531490250793e-32 87.54876981727742 -45.77980100099512 5.483663522135576 8.580707772279308e-06 -1.6881633235727432e-06 -22.43291113581116 179.99999856068808 -25.339613922191855 163.65761189683616 -6.361109362927035e-15 -1.5902773407317588e-15 -1.5902773407317588e-15 8.750470494578035 -15.266041461498423 18.92144730881885 -6.137992225032869 1.6455288979527944 0.3839642958144502 83.39573979968095 68.48333501011807 -68.91245329486789 1.5902773407317582e-15 6.361109362927032e-15 -2.3854160110976368e-15 11.554328695879047 -19.07416943148522 -25.462333235194187 -4.346546551687737 3.6258286100986066 -1.0222673226830232 28.98449992841778 48.34679934954992 -36.48776124866342 3.975693351829396e-15 1.3793457181406746e-31 3.975693351829396e-15
37.54085922241211 -0.2904664874076843 -318.50927734375 7.689450213076956 12.644721856087257 -161.6925302309642 -0.7399847605761823 -1.6772304667070657 -0.19047854054940622 4.430080258900805e-07 -2.093958643580381e-07 3.2783851753862696 -76.46485486739881 -27.044291082269975 -1.9582524927494334 7.273190004733641e-08 1.0028634295989315e-06 17.307493311410003 -179.99999892105694 -63.854106938985325 -160.45171517919005 5.517382872562698e-33 -3.975693351829396e-16 1.5902773407317584e-15 87.45261465928093 -44.67158361910826 5.44325863913698 -6.142760039509477e-07 -1.5972147570762071e-06 -22.21327711622865 179.99999722345325 -42.32600032152892 166.12027038667014 6.3611093629270335e-15 -3.975693351829396e-16 2.2069531490250793e-32 8.865701734833593 -15.214245703020952 19.085323171682216 -6.249100605592562 1.6583328902575427 0.3784334313399939 83.35482477383104 68.54508349463202 -69.17261617208256 1.5902773407317582e-15 6.361109362927033e-15 3.9756933518293945e-16 11.512788715333597 -19.093683477792123 -25.359569648797734 -4.246757169064638 3.832906976477543 -1.1028914676793906 28.217149915440693 48.07437834099838 -35.9304830916257 4.770832022195275e-15 -6.3611093629270335e-15 7.951386703658796e-16
